<svg xmlns="http://www.w3.org/2000/svg" width="29.024048pt" height="9.22905pt" viewBox="0 0 29.024048 9.22905"><g fill="currentColor"><path d="M 6.165512 6.748444 C 6.165512 6.638504 6.066483 6.638504 6.033417 6.638504 C 5.923477 6.638504 5.912567 6.68248 5.879501 6.836563 C 5.69252 7.551422 5.494461 8.200485 5.043457 8.200485 C 4.746536 8.200485 4.71347 7.914474 4.71347 7.694427 C 4.71347 7.45256 4.735458 7.364441 4.856476 6.880539 L 5.098511 5.890579 L 5.494461 4.350586 C 5.571503 4.042419 5.571503 4.020432 5.571503 3.976456 C 5.571503 3.789474 5.439575 3.679535 5.252426 3.679535 C 4.988571 3.679535 4.823578 3.92157 4.790512 4.163437 C 4.592453 3.756577 4.273544 3.459488 3.778564 3.459488 C 2.491516 3.459488 1.127426 5.076523 1.127426 6.68248 C 1.127426 7.716583 1.732513 8.44252 2.590546 8.44252 C 2.810425 8.44252 3.360458 8.398544 4.020432 7.617554 C 4.108551 8.079468 4.493423 8.44252 5.021469 8.44252 C 5.406509 8.44252 5.659454 8.189575 5.835526 7.837433 C 6.022507 7.441483 6.165512 6.748444 6.165512 6.748444 Z M 4.658417 4.669495 C 4.658417 4.735458 4.636429 4.801422 4.625519 4.856476 L 4.075485 7.012466 C 4.020432 7.210526 4.020432 7.232513 3.855438 7.419495 C 3.371536 8.024582 2.920532 8.200485 2.612534 8.200485 C 2.0625 8.200485 1.908417 7.595566 1.908417 7.16655 C 1.908417 6.616516 2.260559 5.263504 2.513504 4.757446 C 2.854568 4.108551 3.349548 3.701523 3.789474 3.701523 C 4.504501 3.701523 4.658417 4.603531 4.658417 4.669495 Z"/><path d="M 20.320023 5.571503 C 20.320023 5.505539 20.276047 5.450485 20.210083 5.428497 C 19.429092 5.219528 18.747131 4.768524 18.153122 4.251556 C 17.669052 3.82254 17.262024 3.305573 16.965103 2.722473 C 16.921127 2.645432 16.854996 2.601456 16.767044 2.601456 C 16.646027 2.601456 16.546997 2.700485 16.546997 2.821503 C 16.546997 2.854568 16.558075 2.887466 16.568985 2.920532 C 16.833008 3.426422 17.162994 3.888504 17.548035 4.284454 L 12.57608 4.284454 C 12.961121 3.888504 13.291107 3.426422 13.55513 2.920532 C 13.56604 2.887466 13.577118 2.854568 13.577118 2.821503 C 13.577118 2.700485 13.478088 2.601456 13.357071 2.601456 C 13.269119 2.601456 13.202988 2.645432 13.159012 2.722473 C 12.862091 3.305573 12.455063 3.82254 11.970993 4.251556 C 11.376984 4.768524 10.695023 5.219528 9.914032 5.428497 C 9.848068 5.450485 9.804092 5.505539 9.804092 5.571503 C 9.804092 5.637466 9.848068 5.69252 9.914032 5.714508 C 10.695023 5.923477 11.376984 6.374481 11.970993 6.891449 C 12.455063 7.320465 12.862091 7.837433 13.159012 8.420532 C 13.202988 8.497574 13.269119 8.54155 13.357071 8.54155 C 13.478088 8.54155 13.577118 8.44252 13.577118 8.321503 C 13.577118 8.288437 13.56604 8.255539 13.55513 8.222473 C 13.291107 7.716583 12.961121 7.254501 12.57608 6.858551 L 17.548035 6.858551 C 17.162994 7.254501 16.833008 7.716583 16.568985 8.222473 C 16.558075 8.255539 16.546997 8.288437 16.546997 8.321503 C 16.546997 8.44252 16.646027 8.54155 16.767044 8.54155 C 16.854996 8.54155 16.921127 8.497574 16.965103 8.420532 C 17.262024 7.837433 17.669052 7.320465 18.153122 6.891449 C 18.747131 6.374481 19.429092 5.923477 20.210083 5.714508 C 20.276047 5.69252 20.320023 5.637466 20.320023 5.571503 Z M 19.473068 5.571503 C 18.9561 5.780472 18.461121 6.066483 18.032104 6.418457 L 12.09201 6.418457 C 11.662994 6.066483 11.168015 5.780472 10.651047 5.571503 C 11.168015 5.362534 11.662994 5.076523 12.09201 4.724548 L 18.032104 4.724548 C 18.461121 5.076523 18.9561 5.362534 19.473068 5.571503 Z"/><path d="M 28.182465 5.219528 C 28.182465 4.218491 27.599533 3.459488 26.719513 3.459488 C 26.213455 3.459488 25.762619 3.778564 25.432465 4.119461 L 26.246521 0.808517 C 26.246521 0.808517 26.246521 0.6875 26.103516 0.6875 C 25.850571 0.6875 25.047592 0.775452 24.761581 0.79744 C 24.673462 0.808517 24.552612 0.819427 24.552612 1.017487 C 24.552612 1.149582 24.651474 1.149582 24.816467 1.149582 C 25.344513 1.149582 25.366501 1.226456 25.366501 1.336563 C 25.366501 1.413437 25.267471 1.787567 25.212585 2.018524 L 24.310577 5.604568 C 24.178482 6.154434 24.134506 6.330505 24.134506 6.715546 C 24.134506 7.760559 24.717606 8.44252 25.531494 8.44252 C 26.82962 8.44252 28.182465 6.803497 28.182465 5.219528 Z M 27.390564 4.735458 C 27.390564 5.384521 27.027512 6.649582 26.82962 7.06752 C 26.466568 7.804535 25.96051 8.200485 25.531494 8.200485 C 25.157532 8.200485 24.794479 7.903564 24.794479 7.089508 C 24.794479 6.880539 24.794479 6.67157 24.970551 5.978531 L 25.212585 4.966583 C 25.278549 4.724548 25.278549 4.70256 25.377579 4.581543 C 25.916534 3.866516 26.411514 3.701523 26.697525 3.701523 C 27.093475 3.701523 27.390564 4.031509 27.390564 4.735458 Z"/></g></svg>
