<svg xmlns="http://www.w3.org/2000/svg" role="img" aria-label="one half equals two quarters" lang="en" dir="ltr" data-math-display="inline" data-math-baseline="60470" data-math-origin-x="4096" data-math-advance="133271" viewBox="0 0 141463 87176" width="2.1585540771484375em" height="1.3302001953125em"><metadata data-format="vmb-math-metadata-v2">\frac{1}{2}=\frac{2}{4}</metadata><g fill="currentColor"><path d="M 23318 34649 L 23318 33227 L 21850 33227 C 17721 33227 17583 32722 17583 31025 L 17583 5289 C 17583 4188 17583 4096 16528 4096 C 13684 7032 9647 7032 8179 7032 L 8179 8454 C 9096 8454 11803 8454 14189 7262 L 14189 31025 C 14189 32676 14051 33227 9922 33227 L 8454 33227 L 8454 34649 C 10060 34511 14051 34511 15886 34511 C 17721 34511 21712 34511 23318 34649 Z"/><path d="M 24694 75098 L 23547 75098 C 23318 76474 22997 78492 22538 79181 C 22217 79548 19189 79548 18180 79548 L 9922 79548 L 14785 74822 C 21941 68492 24694 66014 24694 61427 C 24694 56197 20565 52527 14968 52527 C 9785 52527 6390 56748 6390 60831 C 6390 63400 8684 63400 8821 63400 C 9601 63400 11207 62849 11207 60968 C 11207 59775 10381 58583 8775 58583 C 8408 58583 8317 58583 8179 58629 C 9234 55647 11711 53949 14372 53949 C 18547 53949 20519 57665 20519 61427 C 20519 65097 18226 68721 15702 71565 L 6894 81383 C 6390 81887 6390 81979 6390 83080 L 23409 83080 Z"/><path d="M 4096 42775 L 27034 42775 L 27034 45396 L 4096 45396 Z"/><path d="M 92555 37729 C 92555 37008 91965 36418 91244 36418 L 50219 36418 C 49498 36418 48908 37008 48908 37729 C 48908 38450 49498 39040 50219 39040 L 91244 39040 C 91965 39040 92555 38450 92555 37729 Z M 92555 50443 C 92555 49722 91965 49132 91244 49132 L 50219 49132 C 49498 49132 48908 49722 48908 50443 C 48908 51164 49498 51754 50219 51754 L 91244 51754 C 91965 51754 92555 51164 92555 50443 Z"/><path d="M 135027 26667 L 133880 26667 C 133651 28043 133330 30061 132871 30750 C 132550 31117 129522 31117 128513 31117 L 120255 31117 L 125118 26391 C 132274 20061 135027 17583 135027 12996 C 135027 7766 130898 4096 125301 4096 C 120118 4096 116723 8317 116723 12400 C 116723 14969 119017 14969 119154 14969 C 119934 14969 121540 14418 121540 12537 C 121540 11344 120714 10152 119108 10152 C 118741 10152 118650 10152 118512 10198 C 119567 7216 122044 5518 124705 5518 C 128880 5518 130852 9234 130852 12996 C 130852 16666 128559 20290 126035 23134 L 117227 32952 C 116723 33456 116723 33548 116723 34649 L 133742 34649 Z"/><path d="M 136036 75511 L 136036 74088 L 131449 74088 L 131449 53215 C 131449 52298 131449 52023 130715 52023 C 130302 52023 130164 52023 129797 52573 L 115714 74088 L 115714 75511 L 127916 75511 L 127916 79502 C 127916 81153 127825 81658 124430 81658 L 123466 81658 L 123466 83080 C 125347 82942 127733 82942 129660 82942 C 131586 82942 134018 82942 135899 83080 L 135899 81658 L 134935 81658 C 131540 81658 131449 81153 131449 79502 L 131449 75511 Z M 128192 74088 L 116998 74088 L 128192 56977 Z"/><path d="M 114429 42775 L 137367 42775 L 137367 45396 L 114429 45396 Z"/></g></svg>
