<svg xmlns="http://www.w3.org/2000/svg" role="img" aria-label="a over b in parentheses" lang="en" dir="ltr" data-math-display="inline" data-math-baseline="56328" data-math-origin-x="4096" data-math-advance="79580" viewBox="0 0 87772 83539" width="1.33929443359375em" height="1.2747039794921875em"><metadata data-format="vmb-math-metadata-v2">\left(\frac{a}{b}\right)</metadata><g fill="currentColor"><path d="M 27820 75137 C 27820 74940 27754 74744 27558 74613 C 20283 69108 15368 54886 15368 43352 L 15368 36536 C 15368 25002 20283 10780 27558 5275 C 27754 5144 27820 4948 27820 4751 C 27820 4358 27558 4096 27165 4096 C 27034 4096 26837 4096 26771 4227 C 18973 10060 11698 24281 11698 36536 L 11698 43352 C 11698 55607 18973 69828 26771 75661 C 26837 75792 27034 75792 27165 75792 C 27558 75792 27820 75530 27820 75137 Z"/><path d="M 54598 23947 C 54598 23488 54185 23488 54047 23488 C 53589 23488 53543 23672 53405 24314 C 52625 27296 51799 30002 49919 30002 C 48680 30002 48542 28810 48542 27892 C 48542 26883 48634 26516 49139 24497 L 50148 20369 L 51799 13946 C 52121 12662 52121 12570 52121 12386 C 52121 11606 51570 11148 50790 11148 C 49689 11148 49001 12157 48863 13166 C 48038 11469 46707 10230 44643 10230 C 39276 10230 33587 16974 33587 23672 C 33587 27984 36110 31012 39688 31012 C 40606 31012 42900 30828 45652 27571 C 46019 29498 47625 31012 49827 31012 C 51432 31012 52488 29956 53222 28488 C 54001 26837 54598 23947 54598 23947 Z M 48313 15276 C 48313 15552 48221 15827 48175 16056 L 45882 25048 C 45652 25874 45652 25965 44964 26745 C 42946 29268 41065 30002 39780 30002 C 37486 30002 36844 27479 36844 25690 C 36844 23396 38312 17754 39367 15643 C 40789 12937 42854 11239 44689 11239 C 47671 11239 48313 15001 48313 15276 Z"/><path d="M 53084 66001 C 53084 61827 50653 58661 46983 58661 C 44873 58661 42992 59992 41615 61414 L 45010 47605 C 45010 47605 45010 47101 44414 47101 C 43359 47101 40010 47468 38817 47559 C 38450 47605 37945 47651 37945 48477 C 37945 49027 38358 49027 39046 49027 C 41248 49027 41340 49349 41340 49807 C 41340 50128 40927 51688 40698 52652 L 36936 67607 C 36386 69901 36202 70635 36202 72240 C 36202 76598 38634 79443 42028 79443 C 47442 79443 53084 72607 53084 66001 Z M 49781 63983 C 49781 66689 48267 71965 47442 73708 C 45928 76782 43817 78433 42028 78433 C 40469 78433 38955 77195 38955 73800 C 38955 72928 38955 72057 39689 69167 L 40698 64946 C 40973 63937 40973 63845 41386 63340 C 43634 60359 45698 59670 46891 59670 C 48543 59670 49781 61047 49781 63983 Z"/><path d="M 31752 38633 L 56020 38633 L 56020 41254 L 31752 41254 Z"/><path d="M 76074 43352 L 76074 36536 C 76074 24281 68800 10060 61001 4227 C 60935 4096 60739 4096 60608 4096 C 60214 4096 59952 4358 59952 4751 C 59952 4948 60018 5144 60214 5275 C 67489 10780 72404 25002 72404 36536 L 72404 43352 C 72404 54886 67489 69108 60214 74613 C 60018 74744 59952 74940 59952 75137 C 59952 75530 60214 75792 60608 75792 C 60739 75792 60935 75792 61001 75661 C 68800 69828 76074 55607 76074 43352 Z"/></g></svg>
