<svg xmlns="http://www.w3.org/2000/svg" width="14.732239pt" height="14.021744pt" viewBox="0 0 14.732239 14.021744"><g fill="currentColor"><path d="M 4.669495 12.611496 C 4.669495 12.57843 4.658417 12.545532 4.625519 12.523544 C 3.404434 11.599548 2.579468 9.212433 2.579468 7.276489 L 2.579468 6.132446 C 2.579468 4.196503 3.404434 1.809387 4.625519 0.885391 C 4.658417 0.863403 4.669495 0.830505 4.669495 0.79744 C 4.669495 0.731476 4.625519 0.6875 4.559555 0.6875 C 4.537567 0.6875 4.504501 0.6875 4.493423 0.709488 C 3.184555 1.688538 1.96347 4.075485 1.96347 6.132446 L 1.96347 7.276489 C 1.96347 9.33345 3.184555 11.720398 4.493423 12.699448 C 4.504501 12.721436 4.537567 12.721436 4.559555 12.721436 C 4.625519 12.721436 4.669495 12.67746 4.669495 12.611496 Z"/><path d="M 9.164093 4.019424 C 9.164093 3.942383 9.094772 3.942383 9.071609 3.942383 C 8.994736 3.942383 8.987015 3.973267 8.963852 4.081024 C 8.832932 4.581543 8.69429 5.035736 8.378738 5.035736 C 8.170776 5.035736 8.147614 4.835663 8.147614 4.68158 C 8.147614 4.512222 8.163055 4.450623 8.247818 4.11174 L 8.417175 3.418869 L 8.69429 2.34079 C 8.748337 2.125275 8.748337 2.109833 8.748337 2.078949 C 8.748337 1.948029 8.655853 1.871155 8.524933 1.871155 C 8.340134 1.871155 8.224655 2.040512 8.201492 2.209869 C 8.063019 1.925034 7.839615 1.717072 7.493179 1.717072 C 6.592346 1.717072 5.637466 2.84903 5.637466 3.973267 C 5.637466 4.697021 6.060944 5.205261 6.661499 5.205261 C 6.815582 5.205261 7.200623 5.174377 7.662537 4.627701 C 7.724136 4.951141 7.993698 5.205261 8.363297 5.205261 C 8.63269 5.205261 8.809937 5.028015 8.933136 4.781616 C 9.063889 4.504501 9.164093 4.019424 9.164093 4.019424 Z M 8.109177 2.564026 C 8.109177 2.610352 8.093735 2.656509 8.086014 2.694946 L 7.701141 4.204224 C 7.662537 4.342865 7.662537 4.358139 7.547058 4.489059 C 7.208344 4.912537 6.892624 5.035736 6.676941 5.035736 C 6.291901 5.035736 6.184143 4.612259 6.184143 4.311981 C 6.184143 3.926941 6.430542 2.97995 6.60762 2.625626 C 6.846298 2.171432 7.192902 1.886429 7.5009 1.886429 C 8.001419 1.886429 8.109177 2.517868 8.109177 2.564026 Z"/><path d="M 8.909973 11.078049 C 8.909973 10.377457 8.501938 9.846054 7.885941 9.846054 C 7.531784 9.846054 7.216064 10.069458 6.98494 10.308136 L 7.554779 7.990341 C 7.554779 7.990341 7.554779 7.905746 7.454742 7.905746 C 7.277664 7.905746 6.715546 7.967346 6.515305 7.98262 C 6.453705 7.990341 6.368942 7.998062 6.368942 8.136703 C 6.368942 8.229019 6.438263 8.229019 6.553741 8.229019 C 6.92334 8.229019 6.938782 8.283066 6.938782 8.35994 C 6.938782 8.413818 6.869461 8.675659 6.831024 8.837463 L 6.199585 11.34761 C 6.107269 11.732651 6.076385 11.85585 6.076385 12.125244 C 6.076385 12.85672 6.484589 13.334244 7.05426 13.334244 C 7.962982 13.334244 8.909973 12.186844 8.909973 11.078049 Z M 8.355576 10.739334 C 8.355576 11.193527 8.101456 12.079086 7.962982 12.371643 C 7.708862 12.887604 7.354538 13.164719 7.05426 13.164719 C 6.792587 13.164719 6.538467 12.956924 6.538467 12.387085 C 6.538467 12.240723 6.538467 12.094528 6.661667 11.609451 L 6.831024 10.90097 C 6.877182 10.731613 6.877182 10.716171 6.946503 10.631409 C 7.323822 10.131058 7.670258 10.015411 7.870499 10.015411 C 8.147781 10.015411 8.355576 10.246536 8.355576 10.739334 Z"/><path d="M 5.329468 6.484421 L 9.402771 6.484421 L 9.402771 6.924347 L 5.329468 6.924347 Z"/><path d="M 12.768768 7.276489 L 12.768768 6.132446 C 12.768768 4.075485 11.547852 1.688538 10.238815 0.709488 C 10.227737 0.6875 10.194839 0.6875 10.172852 0.6875 C 10.10672 0.6875 10.062744 0.731476 10.062744 0.79744 C 10.062744 0.830505 10.073822 0.863403 10.10672 0.885391 C 11.327805 1.809387 12.152771 4.196503 12.152771 6.132446 L 12.152771 7.276489 C 12.152771 9.212433 11.327805 11.599548 10.10672 12.523544 C 10.073822 12.545532 10.062744 12.57843 10.062744 12.611496 C 10.062744 12.67746 10.10672 12.721436 10.172852 12.721436 C 10.194839 12.721436 10.227737 12.721436 10.238815 12.699448 C 11.547852 11.720398 12.768768 9.33345 12.768768 7.276489 Z"/></g></svg>
